#!OML:ASF E:\Mandelcareful walks\Project 1\Capture day 1\Session 1\Subject1.ASF
:FULLY-SPECIFIED
:DEGREES
206
root -5.97813 12.9047 -0.539227 166.072 65.2436 142.843
lowerback 45.3786 -1.7938 9.76059
upperback 10.6537 4.09784 -1.71485
thorax -8.29921 2.80771 -8.7024
lowerneck -28.6476 -12.5772 -10.6339
upperneck 18.5817 -14.4839 6.15567
head 11.9743 -6.50031 1.20609
rclavicle -6.04305e-014 -6.99722e-014
rhumerus 59.1294 -17.8032 -85.2929
rradius 26.1979
rwrist -23.0714
rhand -11.1479 -43.9628
rfingers 7.12502
rthumb 14.878 -73.4086
lclavicle -6.04305e-014 -6.99722e-014
lhumerus -24.3942 -25.6839 91.1741
lradius 46.2626
lwrist 29.5207
lhand -23.7079 -14.4288
lfingers 7.12502
lthumb 2.75943 15.5331
rfemur -72.4874 -46.6093 2.61801
rtibia 95.447
rfoot -26.3569 1.15661
rtoes -15.0312
lfemur -77.0434 -6.23396 -30.7029
ltibia 89.2053
lfoot -29.0301 1.03047
ltoes -8.03168
207
root -5.97817 12.896 -0.555066 166.229 65.1952 142.971
lowerback 45.4426 -1.81902 9.95293
upperback 10.6248 4.14901 -1.79511
thorax -8.32141 2.83094 -8.91245
lowerneck -28.5104 -12.7214 -10.6937
upperneck 18.5101 -14.6927 6.23894
head 11.9535 -6.59176 1.20693
rclavicle 2.03555e-013 1.24042e-013
rhumerus 60.8161 -18.3344 -86.9482
rradius 23.7901
rwrist -20.8556
rhand -3.35221 -59.1716
rfingers 7.12502
rthumb 22.3759 -87.8957
lclavicle 2.03555e-013 1.24042e-013
lhumerus -24.3931 -25.8622 91.2098
lradius 46.3222
lwrist 28.6418
lhand -24.2531 -13.6447
lfingers 7.12502
lthumb 2.23295 16.3234
rfemur -72.4831 -46.8486 2.67013
rtibia 95.4549
rfoot -26.4834 1.13735
rtoes -15.0322
lfemur -77.1318 -6.40995 -30.6909
ltibia 89.3547
lfoot -29.0492 1.06729
ltoes -8.09098
208
root -5.97813 12.8869 -0.570013 166.417 65.2073 143.049
lowerback 45.3968 -1.78046 10.0886
upperback 10.5922 4.23287 -1.85015
thorax -8.31803 2.86543 -9.07709
lowerneck -28.3112 -12.8699 -10.8317
upperneck 18.3784 -14.9349 6.51286
head 11.9274 -6.68168 1.2846
rclavicle 8.5875e-014 4.29375e-014
rhumerus 62.2315 -19.0303 -89.172
rradius 22.2991
rwrist -18.1312
rhand -5.13395 -55.9749
rfingers 7.12502
rthumb 20.6647 -84.8948
lclavicle 8.5875e-014 4.29375e-014
lhumerus -24.3969 -25.9835 91.2748
lradius 46.2391
lwrist 27.9777
lhand -24.7863 -13.5973
lfingers 7.12502
lthumb 1.71799 16.3756
rfemur -72.6753 -46.994 2.88665
rtibia 95.4164
rfoot -26.6679 1.01841
rtoes -15.4402
lfemur -77.3141 -6.53417 -30.6482
ltibia 89.4907
lfoot -29.0169 0.862381
ltoes -7.23359
209
root -5.97797 12.8777 -0.58399 166.334 65.248 142.816
lowerback 45.2865 -1.6893 10.0655
upperback 10.6008 4.30252 -1.90676
thorax -8.26592 2.89921 -9.15349
lowerneck -28.0468 -12.9426 -10.821
upperneck 18.0874 -15.1143 6.72974
head 11.8064 -6.74742 1.33998
rclavicle 3.18055e-014 9.54166e-015
rhumerus 63.284 -19.6481 -91.2102
rradius 21.0456
rwrist -15.8151
rhand -6.79015 -52.2006
rfingers 7.12502
rthumb 19.0726 -81.2854
lclavicle 3.18055e-014 9.54166e-015
lhumerus -24.275 -25.6961 91.1426
lradius 46.2109
lwrist 28.5394
lhand -24.2668 -13.5507
lfingers 7.12502
lthumb 2.21974 16.4175
rfemur -72.9357 -47.0924 2.98175
rtibia 95.3774
rfoot -26.7442 1.0402
rtoes -15.1701
lfemur -77.4923 -6.63379 -30.7198
ltibia 89.5914
lfoot -29.0945 0.825281
ltoes -6.71011
210
root -5.97893 12.8694 -0.594584 166.212 65.3292 142.538
lowerback 45.2437 -1.56619 10.0788
upperback 10.5954 4.43186 -1.97339
thorax -8.23273 2.95833 -9.28634
lowerneck -27.9754 -13.0904 -10.773
upperneck 17.9391 -15.3465 6.76785
head 11.757 -6.84881 1.30301
rclavicle 3.18055e-015 -5.88403e-014
rhumerus 64.1825 -20.3743 -93.2639
rradius 20.1934
rwrist -13.4441
rhand -7.04344 -49.1448
rfingers 7.12502
rthumb 18.829 -78.2534
lclavicle 3.18055e-015 -5.88403e-014
lhumerus -24.0926 -25.6286 91.0234
lradius 45.9789
lwrist 29.5251
lhand -23.7955 -14.9399
lfingers 7.12502
lthumb 2.67487 15.0231
rfemur -73.2476 -47.1389 3.07498
rtibia 95.3965
rfoot -26.71 1.14239
rtoes -15.0781
lfemur -77.6936 -6.68238 -30.7938
ltibia 89.7119
lfoot -29.2375 1.00004
ltoes -6.85987
211
root -5.98065 12.8624 -0.599478 166.247 65.4447 142.4
lowerback 45.2212 -1.4332 10.0954
upperback 10.586 4.57625 -2.04308
thorax -8.20581 3.02363 -9.43112
lowerneck -28.1099 -13.2825 -10.7576
upperneck 17.8969 -15.6415 6.91046
head 11.8024 -6.9579 1.28346
rclavicle -5.725e-014 -2.38542e-014
rhumerus 65.8981 -21.1086 -95.5696
rradius 18.8801
rwrist -10.9385
rhand -8.55375 -45.5125
rfingers 7.12502
rthumb 17.376 -74.7558
lclavicle -5.725e-014 -2.38542e-014
lhumerus -23.9588 -25.6716 90.9768
lradius 46.0249
lwrist 29.6253
lhand -24.3419 -15.4188
lfingers 7.12502
lthumb 2.14719 14.5502
rfemur -73.6335 -47.1073 3.2977
rtibia 95.4265
rfoot -26.6897 1.15871
rtoes -15.3086
lfemur -77.9522 -6.63883 -30.8001
ltibia 89.8247
lfoot -29.2867 1.10011
ltoes -7.09382
212
root -5.98198 12.8548 -0.603586 166.222 65.5279 142.177
lowerback 45.0781 -1.32438 9.99431
upperback 10.6122 4.63008 -2.09602
thorax -8.13379 3.05228 -9.45486
lowerneck -28.0723 -13.365 -10.7298
upperneck 17.7009 -15.8352 7.17827
head 11.7633 -7.01423 1.33961
rclavicle 6.99722e-014 -5.24792e-014
rhumerus 66.9367 -21.4924 -97.2069
rradius 18.2356
rwrist -9.48252
rhand -10.1063 -41.0084
rfingers 7.12502
rthumb 15.8813 -70.3771
lclavicle 6.99722e-014 -5.24792e-014
lhumerus -23.9207 -25.1835 90.8747
lradius 46.1218
lwrist 29.4845
lhand -23.974 -15.8466
lfingers 7.12502
lthumb 2.50251 14.1185
rfemur -74.0403 -47.1103 3.47163
rtibia 95.456
rfoot -26.6682 1.17437
rtoes -14.919
lfemur -78.22 -6.59138 -30.8747
ltibia 89.9151
lfoot -29.2014 1.24041
ltoes -7.14513
213
root -5.98222 12.8481 -0.611816 166.227 65.5391 142.037
lowerback 44.9039 -1.31381 9.92787
upperback 10.6474 4.58634 -2.12209
thorax -8.05987 3.03779 -9.42475
lowerneck -27.872 -13.3591 -10.678
upperneck 17.4521 -15.9177 7.40584
head 11.6613 -7.03178 1.41005
rclavicle 1.90833e-014 3.97569e-014
rhumerus 67.2355 -21.4469 -97.7
rradius 18.134
rwrist -9.50047
rhand -10.7073 -40.9365
rfingers 7.12502
rthumb 15.3025 -70.3504
lclavicle 1.90833e-014 3.97569e-014
lhumerus -24.05 -24.8692 90.8821
lradius 46.3185
lwrist 29.2876
lhand -24.0623 -15.3926
lfingers 7.12502
lthumb 2.41718 14.5735
rfemur -74.2851 -47.2031 3.54565
rtibia 95.461
rfoot -26.6137 1.16772
rtoes -14.6551
lfemur -78.4042 -6.65663 -30.9522
ltibia 89.9936
lfoot -29.1418 1.46555
ltoes -7.08165
214
root -5.98255 12.8441 -0.620655 166.387 65.5367 142.154
lowerback 44.8418 -1.37193 9.91812
upperback 10.6511 4.50855 -2.09079
thorax -8.05575 3.00076 -9.35127
lowerneck -27.7698 -13.3177 -10.575
upperneck 17.3041 -15.9347 7.51735
head 11.5923 -7.02613 1.43948
rclavicle 5.08889e-014 1.08139e-013
rhumerus 66.9765 -21.0898 -97.3352
rradius 18.4668
rwrist -10.5198
rhand -11.0484 -41.1371
rfingers 7.12502
rthumb 14.9739 -70.5758
lclavicle 5.08889e-014 1.08139e-013
lhumerus -24.2334 -24.6663 91.0084
lradius 46.4415
lwrist 28.9504
lhand -24.4108 -15.7691
lfingers 7.12502
lthumb 2.08066 14.2005
rfemur -74.3366 -47.2803 3.62361
rtibia 95.4204
rfoot -26.6279 1.21154
rtoes -15.0525
lfemur -78.51 -6.77544 -30.9043
ltibia 90.0665
lfoot -29.1704 1.58347
ltoes -7.12258
215
root -5.9824 12.8415 -0.628106 166.521 65.5545 142.29
lowerback 44.8888 -1.43993 9.87804
upperback 10.6254 4.42319 -2.02339
thorax -8.11944 2.95313 -9.22459
lowerneck -27.827 -13.3229 -10.6005
upperneck 17.3228 -15.9662 7.65389
head 11.6288 -7.02183 1.48213
rclavicle 7.31528e-014 8.5875e-014
rhumerus 66.1701 -20.544 -96.309
rradius 19.4074
rwrist -12.1297
rhand -11.0397 -41.623
rfingers 7.12502
rthumb 14.9822 -71.0611
lclavicle 7.31528e-014 8.5875e-014
lhumerus -24.3838 -24.4272 91.1956
lradius 46.4174
lwrist 28.6777
lhand -24.4251 -16.4522
lfingers 7.12502
lthumb 2.0668 13.5175
rfemur -74.3115 -47.3151 3.67826
rtibia 95.3599
rfoot -26.664 1.26827
rtoes -15.4402
lfemur -78.5682 -6.88128 -30.8163
ltibia 90.1354
lfoot -29.2065 1.69003
ltoes -7.108
216
root -5.97967 12.8366 -0.643313 166.41 65.3128 142.116
lowerback 44.8376 -1.67252 9.8984
upperback 10.5909 4.14713 -2.03716
thorax -8.19295 2.82075 -9.13828
lowerneck -27.9022 -13.3486 -10.6834
upperneck 17.47 -16.0109 7.7897
head 11.724 -7.02281 1.52644
rclavicle 6.04305e-014 5.08889e-014
rhumerus 65.0962 -19.847 -94.8319
rradius 20.5194
rwrist -14.1319
rhand -10.7899 -42.2761
rfingers 7.12502
rthumb 15.2228 -71.696
lclavicle 6.04305e-014 5.08889e-014
lhumerus -24.6114 -24.558 91.3385
lradius 46.5021
lwrist 28.7981
lhand -24.1717 -15.8159
lfingers 7.12502
lthumb 2.3115 14.1513
rfemur -74.1844 -47.7286 3.3957
rtibia 95.3258
rfoot -26.6031 1.42776
rtoes -15.2556
lfemur -78.5543 -7.28928 -30.9558
ltibia 90.1863
lfoot -29.3447 1.87308
ltoes -6.63963
217
root -5.9768 12.8305 -0.657621 166.211 65.0761 141.843
lowerback 44.7742 -1.913 9.90574
upperback 10.5596 3.84859 -2.0921
thorax -8.26301 2.67984 -9.0808
lowerneck -27.8302 -13.3427 -10.6516
upperneck 17.4728 -16.0477 7.87219
head 11.7227 -7.02909 1.54664
rclavicle -6.99722e-014 -1.44715e-013
rhumerus 64.0134 -19.0182 -92.9047
rradius 21.5401
rwrist -16.5854
rhand -10.5362 -43.169
rfingers 7.12502
rthumb 15.4673 -72.5703
lclavicle -6.99722e-014 -1.44715e-013
lhumerus -24.8803 -25.1186 91.4355
lradius 46.6149
lwrist 29.2367
lhand -22.9264 -14.8112
lfingers 7.12502
lthumb 3.51417 15.1395
rfemur -74.0677 -48.1101 3.05334
rtibia 95.3243
rfoot -26.4942 1.58954
rtoes -14.4866
lfemur -78.5484 -7.65543 -31.1549
ltibia 90.2442
lfoot -29.4718 2.01571
ltoes -6.41853
218
root -5.97493 12.8286 -0.656159 166.267 65.4073 141.916
lowerback 44.9094 -1.81217 9.73017
upperback 10.4964 3.90273 -2.0366
thorax -8.37568 2.68657 -8.96004
lowerneck -27.5286 -13.3979 -10.7781
upperneck 17.2574 -16.1945 8.24585
head 11.655 -7.07149 1.68293
rclavicle -4.77083e-014 3.02153e-014
rhumerus 63.0957 -18.1987 -90.7517
rradius 22.4038
rwrist -19.3214
rhand -10.661 -43.8223
rfingers 7.12502
rthumb 15.347 -73.2327
lclavicle -4.77083e-014 3.02153e-014
lhumerus -25.1057 -25.6582 91.5937
lradius 46.4483
lwrist 29.701
lhand -23.7051 -14.7402
lfingers 7.12502
lthumb 2.76213 15.2217
rfemur -74.2377 -47.6677 3.3082
rtibia 95.3315
rfoot -26.5136 1.44876
rtoes -14.51
lfemur -78.6548 -7.34064 -30.987
ltibia 90.3397
lfoot -29.523 1.92374
ltoes -6.83165
219
root -5.97351 12.8303 -0.653731 166.452 65.8535 142.095
lowerback 45.0138 -1.6704 9.45424
upperback 10.4308 3.9631 -1.90665
thorax -8.4923 2.69139 -8.70819
lowerneck -27.4685 -13.4241 -10.9645
upperneck 17.2429 -16.2581 8.58472
head 11.6993 -7.07073 1.81915
rclavicle 9.22361e-014 -3.18055e-014
rhumerus 61.0487 -17.2412 -88.9873
rradius 24.3591
rwrist -21.6447
rhand -10.793 -43.7093
rfingers 7.12502
rthumb 15.2199 -73.1294
lclavicle 9.22361e-014 -3.18055e-014
lhumerus -25.3807 -25.7416 91.827
lradius 46.6028
lwrist 29.5949
lhand -24.3096 -13.3394
lfingers 7.12502
lthumb 2.17838 16.6292
rfemur -74.521 -47.0767 3.73228
rtibia 95.3134
rfoot -26.6616 1.23806
rtoes -14.8944
lfemur -78.7945 -6.92449 -30.7236
ltibia 90.4047
lfoot -29.6063 1.94024
ltoes -7.28316
